<svg xmlns="http://www.w3.org/2000/svg" xmlns:xlink="http://www.w3.org/1999/xlink" xmlns:lucid="lucid" width="1222" height="1120"><g transform="translate(-624 -31)" lucid:page-tab-id="0_0"><path d="M0 0h3542.65v1828.25H0z" fill="#fff"/><path d="M603.08 28a8 8 0 0 1 8-8h1264a8 8 0 0 1 8 8v1124a8 8 0 0 1-8 8h-1264a8 8 0 0 1-8-8z" stroke="#333" fill="#fff"/><path d="M1150.77 768a8 8 0 0 1 8-8h168.6a8 8 0 0 1 8 8v147.7a8 8 0 0 1-8 8h-168.6a8 8 0 0 1-8-8z" stroke="#333" fill="#ff8f8f"/><use xlink:href="#a" transform="matrix(1,0,0,1,1155.7692307692305,765) translate(25.982098765432134 62.30972222222221)"/><use xlink:href="#b" transform="matrix(1,0,0,1,1155.7692307692305,765) translate(21.012962962963 105.24305555555554)"/><path d="M861.54 533.2a8 8 0 0 1 8-8h144a8 8 0 0 1 8 8v109.9a8 8 0 0 1-8 8h-144a8 8 0 0 1-8-8z" stroke="#333" fill="#fff"/><use xlink:href="#c" transform="matrix(1,0,0,1,866.5384615384615,530.1851851851852) translate(46.61728395061729 32.386111111111106)"/><use xlink:href="#d" transform="matrix(1,0,0,1,866.5384615384615,530.1851851851852) translate(7.852469135802494 64.65277777777777)"/><use xlink:href="#e" transform="matrix(1,0,0,1,866.5384615384615,530.1851851851852) translate(22.716049382716065 96.91944444444442)"/><path d="M1476.92 533.2a8 8 0 0 1 8-8h144a8 8 0 0 1 8 8v109.9a8 8 0 0 1-8 8h-144a8 8 0 0 1-8-8z" stroke="#333" fill="#fff"/><use xlink:href="#f" transform="matrix(1,0,0,1,1481.923076923077,530.1851851851852) translate(29.47561728395067 32.38611111111109)"/><use xlink:href="#g" transform="matrix(1,0,0,1,1481.923076923077,530.1851851851852) translate(20.55000000000006 64.65277777777771)"/><use xlink:href="#h" transform="matrix(1,0,0,1,1481.923076923077,530.1851851851852) translate(22.716049382716115 96.91944444444435)"/><path d="M1489.23 256.15a8 8 0 0 1 8-8h119.4a8 8 0 0 1 8 8v97.33a8 8 0 0 1-8 8h-119.4a8 8 0 0 1-8-8z" stroke="#333" fill="#fff"/><use xlink:href="#i" transform="matrix(1,0,0,1,1494.2307692307693,253.1481481481481) translate(12.095987654321043 39.53888888888886)"/><use xlink:href="#j" transform="matrix(1,0,0,1,1494.2307692307693,253.1481481481481) translate(42.8243827160494 74.47222222222217)"/><path d="M880 256.15a8 8 0 0 1 8-8h107.08a8 8 0 0 1 8 8v97.33a8 8 0 0 1-8 8H888a8 8 0 0 1-8-8z" stroke="#333" fill="#fff"/><use xlink:href="#k" transform="matrix(1,0,0,1,885,253.1481481481481) translate(21.077469135802502 45.42777777777776)"/><use xlink:href="#l" transform="matrix(1,0,0,1,885,253.1481481481481) translate(40.17623456790125 69.6944444444444)"/><use xlink:href="#m" transform="matrix(1,0,0,1,885,253.1481481481481) translate(45.793518518518525 69.6944444444444)"/><path d="M1557.42 524.23h-1v-64.77h1zm6.8-162.3l-.04 65.27h-1l.03-65.27z" stroke="#333" stroke-width=".05" fill="#333"/><path d="M1557.42 524.73h-1v-.5h1z" fill="#333"/><path d="M1557.45 524.76h-1.05v-.56h1.05zm-1-.5v.45h.95v-.45zM1578.7 362.93h-30v-1h30z" stroke="#333" stroke-width=".05" fill="#333"/><use xlink:href="#n" transform="matrix(1,0,0,1,1501.3860195068578,427.19726942559794) translate(0.005000000000002558 21.511111111111102)"/><path d="M942.04 524.23h-1v-78.6h1zm0-105.55h-1v-56.75h1z" stroke="#333" stroke-width=".05" fill="#333"/><path d="M942.04 524.73h-1v-.5h1z" fill="#333"/><path d="M942.06 524.76H941v-.56h1.06zm-1-.5v.45h.95v-.45zM956.54 362.93h-30v-1h30z" stroke="#333" stroke-width=".05" fill="#333"/><use xlink:href="#o" transform="matrix(1,0,0,1,887.3600664767332,418.68167860717114) translate(0.005000000000002558 17.95555555555554)"/><path d="M941.54 667.95v161.9a12 12 0 0 0 12 12h196.28" stroke="#333" fill="none"/><path d="M941.54 653.18l4.63 14.27h-9.27z" stroke="#333" fill="#333"/><path d="M1150.32 842.35h-.5v-1h.5z" stroke="#333" stroke-width=".05" fill="#333"/><path d="M1556.92 667.95v161.9a12 12 0 0 1-12 12h-208.58" stroke="#333" fill="none"/><path d="M1556.92 653.18l4.64 14.27h-9.27z" stroke="#333" fill="#333"/><path d="M1336.35 842.35h-.5v-1h.5z" stroke="#333" stroke-width=".05" fill="#333"/><path d="M1260.66 1027.7c0 6.32-5.1 11.43-11.42 11.43-6.3 0-11.4-5.1-11.4-11.42 0-6.3 5.1-11.4 11.4-11.4 6.3 0 11.42 5.1 11.42 11.4z" stroke="#333" fill="#fff"/><path d="M1249.24 1039.13v23.97a26.2 26.2 0 0 0 4.47 14.63l20.16 29.9m-24.62-36.53l-24.6 36.53m0-57.08h49.22" stroke="#333" fill="none"/><path d="M1224.63 1024.3a8 8 0 0 1 8-8h33.23a8 8 0 0 1 8 8v97.33a8 8 0 0 1-8 8h-33.23a8 8 0 0 1-8-8z" fill="none"/><use xlink:href="#p" transform="matrix(1,0,0,1,1144.627803732456,1107.6296296296298) translate(82.075 14.6)"/><path d="M1249.24 1015.3v-74.76" stroke="#333" fill="none"/><path d="M1249.74 1015.86l-.5-.07-.5.06v-.58h1z" stroke="#333" stroke-width=".05" fill="#333"/><path d="M1249.24 925.77l4.64 14.27h-9.27z" stroke="#333" fill="#333"/><path d="M1073.85 68a8 8 0 0 1 8-8h322.46a8 8 0 0 1 8 8v147.7a8 8 0 0 1-8 8h-322.45a8 8 0 0 1-8-8z" stroke="#000" stroke-opacity="0" fill="#fff" fill-opacity="0"/><g><use xlink:href="#q" transform="matrix(1,0,0,1,1078.8461538461538,65) translate(95.07407407407418 55.326388888888836)"/><use xlink:href="#r" transform="matrix(1,0,0,1,1078.8461538461538,65) translate(8.6820987654323 116.65972222222209)"/></g><path d="M1225.78 588.65h-187.4v-1h187.4zm250.2 0h-203.3v-1h203.3z" stroke="#333" stroke-width=".05" fill="#333"/><path d="M1476.47 588.65h-.5v-1h.5z" fill="#333"/><path d="M1476.5 588.67h-.57v-1.05h.57zm-.52-1v.95h.47v-.95z" stroke="#333" stroke-width=".05" fill="#333"/><path d="M1037.87 592.78l-14.26-4.63 14.27-4.64z" fill="#333"/><path d="M1038.37 593.47l-16.38-5.32 16.37-5.33zm-13.14-5.32l12.14 3.95v-7.9z" stroke="#333" stroke-width=".05" fill="#333"/><g><use xlink:href="#s" transform="matrix(1,0,0,1,1225.7801519467857,570.6814814814815) translate(0.004999999999999005 23.288888888888884)"/></g><defs><path fill="#333" d="M205 0l-28-72H64L36 0H1l101-248h38L239 0h-34zm-38-99l-47-123c-12 45-31 82-46 123h93" id="t"/><path fill="#333" d="M117-194c89-4 53 116 60 194h-32v-121c0-31-8-49-39-48C34-167 62-67 57 0H25l-1-190h30c1 10-1 24 2 32 11-22 29-35 61-36" id="u"/><path fill="#333" d="M177-190C167-65 218 103 67 71c-23-6-38-20-44-43l32-5c15 47 100 32 89-28v-30C133-14 115 1 83 1 29 1 15-40 15-95c0-56 16-97 71-98 29-1 48 16 59 35 1-10 0-23 2-32h30zM94-22c36 0 50-32 50-73 0-42-14-75-50-75-39 0-46 34-46 75s6 73 46 73" id="v"/><path fill="#333" d="M84 4C-5 8 30-112 23-190h32v120c0 31 7 50 39 49 72-2 45-101 50-169h31l1 190h-30c-1-10 1-25-2-33-11 22-28 36-60 37" id="w"/><path fill="#333" d="M24 0v-261h32V0H24" id="x"/><path fill="#333" d="M141-36C126-15 110 5 73 4 37 3 15-17 15-53c-1-64 63-63 125-63 3-35-9-54-41-54-24 1-41 7-42 31l-33-3c5-37 33-52 76-52 45 0 72 20 72 64v82c-1 20 7 32 28 27v20c-31 9-61-2-59-35zM48-53c0 20 12 33 32 33 41-3 63-29 60-74-43 2-92-5-92 41" id="y"/><path fill="#333" d="M114-163C36-179 61-72 57 0H25l-1-190h30c1 12-1 29 2 39 6-27 23-49 58-41v29" id="z"/><g id="a"><use transform="matrix(0.09938271604938267,0,0,0.09938271604938267,0,0)" xlink:href="#t"/><use transform="matrix(0.09938271604938267,0,0,0.09938271604938267,23.85185185185184,0)" xlink:href="#u"/><use transform="matrix(0.09938271604938267,0,0,0.09938271604938267,43.72839506172838,0)" xlink:href="#v"/><use transform="matrix(0.09938271604938267,0,0,0.09938271604938267,63.60493827160491,0)" xlink:href="#w"/><use transform="matrix(0.09938271604938267,0,0,0.09938271604938267,83.48148148148144,0)" xlink:href="#x"/><use transform="matrix(0.09938271604938267,0,0,0.09938271604938267,91.33271604938267,0)" xlink:href="#y"/><use transform="matrix(0.09938271604938267,0,0,0.09938271604938267,111.20925925925918,0)" xlink:href="#z"/></g><path fill="#333" d="M63-220v92h138v28H63V0H30v-248h175v28H63" id="A"/><path fill="#333" d="M100-194c62-1 85 37 85 99 1 63-27 99-86 99S16-35 15-95c0-66 28-99 85-99zM99-20c44 1 53-31 53-75 0-43-8-75-51-75s-53 32-53 75 10 74 51 75" id="B"/><path fill="#333" d="M100-194c63 0 86 42 84 106H49c0 40 14 67 53 68 26 1 43-12 49-29l28 8c-11 28-37 45-77 45C44 4 14-33 15-96c1-61 26-98 85-98zm52 81c6-60-76-77-97-28-3 7-6 17-6 28h103" id="C"/><path fill="#333" d="M85-194c31 0 48 13 60 33l-1-100h32l1 261h-30c-2-10 0-23-3-31C134-8 116 4 85 4 32 4 16-35 15-94c0-66 23-100 70-100zm9 24c-40 0-46 34-46 75 0 40 6 74 45 74 42 0 51-32 51-76 0-42-9-74-50-73" id="D"/><g id="b"><use transform="matrix(0.09938271604938267,0,0,0.09938271604938267,0,0)" xlink:href="#A"/><use transform="matrix(0.09938271604938267,0,0,0.09938271604938267,21.764814814814805,0)" xlink:href="#z"/><use transform="matrix(0.09938271604938267,0,0,0.09938271604938267,33.591358024691345,0)" xlink:href="#B"/><use transform="matrix(0.09938271604938267,0,0,0.09938271604938267,53.467901234567876,0)" xlink:href="#u"/><use transform="matrix(0.09938271604938267,0,0,0.09938271604938267,73.3444444444444,0)" xlink:href="#C"/><use transform="matrix(0.09938271604938267,0,0,0.09938271604938267,93.22098765432094,0)" xlink:href="#u"/><use transform="matrix(0.09938271604938267,0,0,0.09938271604938267,113.09753086419747,0)" xlink:href="#D"/></g><path fill="#333" d="M153-248C145-148 188 4 80 4 36 3 13-21 6-62l32-5c4 25 16 42 43 43 27 0 39-20 39-49v-147H72v-28h81" id="E"/><path fill="#333" d="M108 0H70L1-190h34L89-25l56-165h34" id="F"/><g id="c"><use transform="matrix(0.07469135802469133,0,0,0.07469135802469133,0,0)" xlink:href="#E"/><use transform="matrix(0.07469135802469133,0,0,0.07469135802469133,13.44444444444444,0)" xlink:href="#y"/><use transform="matrix(0.07469135802469133,0,0,0.07469135802469133,28.382716049382704,0)" xlink:href="#F"/><use transform="matrix(0.07469135802469133,0,0,0.07469135802469133,41.82716049382715,0)" xlink:href="#y"/></g><path fill="#333" d="M30 0v-248h33v221h125V0H30" id="G"/><path fill="#333" d="M24-231v-30h32v30H24zM24 0v-190h32V0H24" id="H"/><path fill="#333" d="M101-234c-31-9-42 10-38 44h38v23H63V0H32v-167H5v-23h27c-7-52 17-82 69-68v24" id="I"/><path fill="#333" d="M59-47c-2 24 18 29 38 22v24C64 9 27 4 27-40v-127H5v-23h24l9-43h21v43h35v23H59v120" id="J"/><g id="d"><use transform="matrix(0.07469135802469133,0,0,0.07469135802469133,0,0)" xlink:href="#G"/><use transform="matrix(0.07469135802469133,0,0,0.07469135802469133,14.938271604938267,0)" xlink:href="#H"/><use transform="matrix(0.07469135802469133,0,0,0.07469135802469133,20.83888888888888,0)" xlink:href="#C"/><use transform="matrix(0.07469135802469133,0,0,0.07469135802469133,35.77716049382715,0)" xlink:href="#I"/><use transform="matrix(0.07469135802469133,0,0,0.07469135802469133,43.24629629629628,0)" xlink:href="#C"/><use transform="matrix(0.07469135802469133,0,0,0.07469135802469133,58.184567901234544,0)" xlink:href="#z"/><use transform="matrix(0.07469135802469133,0,0,0.07469135802469133,67.07283950617281,0)" xlink:href="#y"/><use transform="matrix(0.07469135802469133,0,0,0.07469135802469133,82.01111111111108,0)" xlink:href="#u"/><use transform="matrix(0.07469135802469133,0,0,0.07469135802469133,96.94938271604934,0)" xlink:href="#J"/><use transform="matrix(0.07469135802469133,0,0,0.07469135802469133,104.41851851851848,0)" xlink:href="#C"/><use transform="matrix(0.07469135802469133,0,0,0.07469135802469133,119.35679012345675,0)" xlink:href="#u"/></g><path fill="#333" d="M160-131c35 5 61 23 61 61C221 17 115-2 30 0v-248c76 3 177-17 177 60 0 33-19 50-47 57zm-97-11c50-1 110 9 110-42 0-47-63-36-110-37v79zm0 115c55-2 124 14 124-45 0-56-70-42-124-44v89" id="K"/><path fill="#333" d="M96-169c-40 0-48 33-48 73s9 75 48 75c24 0 41-14 43-38l32 2c-6 37-31 61-74 61-59 0-76-41-82-99-10-93 101-131 147-64 4 7 5 14 7 22l-32 3c-4-21-16-35-41-35" id="L"/><path fill="#333" d="M143 0L79-87 56-68V0H24v-261h32v163l83-92h37l-77 82L181 0h-38" id="M"/><g id="e"><use transform="matrix(0.07469135802469133,0,0,0.07469135802469133,0,0)" xlink:href="#K"/><use transform="matrix(0.07469135802469133,0,0,0.07469135802469133,17.92592592592592,0)" xlink:href="#y"/><use transform="matrix(0.07469135802469133,0,0,0.07469135802469133,32.86419753086419,0)" xlink:href="#L"/><use transform="matrix(0.07469135802469133,0,0,0.07469135802469133,46.30864197530863,0)" xlink:href="#M"/><use transform="matrix(0.07469135802469133,0,0,0.07469135802469133,59.753086419753075,0)" xlink:href="#C"/><use transform="matrix(0.07469135802469133,0,0,0.07469135802469133,74.69135802469134,0)" xlink:href="#u"/><use transform="matrix(0.07469135802469133,0,0,0.07469135802469133,89.6296296296296,0)" xlink:href="#D"/></g><path fill="#333" d="M190 0L58-211 59 0H30v-248h39L202-35l-2-213h31V0h-41" id="N"/><path fill="#333" d="M135-143c-3-34-86-38-87 0 15 53 115 12 119 90S17 21 10-45l28-5c4 36 97 45 98 0-10-56-113-15-118-90-4-57 82-63 122-42 12 7 21 19 24 35" id="O"/><g id="f"><use transform="matrix(0.07469135802469128,0,0,0.07469135802469128,0,0)" xlink:href="#N"/><use transform="matrix(0.07469135802469128,0,0,0.07469135802469128,19.34506172839504,0)" xlink:href="#B"/><use transform="matrix(0.07469135802469128,0,0,0.07469135802469128,34.283333333333296,0)" xlink:href="#D"/><use transform="matrix(0.07469135802469128,0,0,0.07469135802469128,49.221604938271554,0)" xlink:href="#C"/><use transform="matrix(0.07469135802469128,0,0,0.07469135802469128,64.1598765432098,0)" xlink:href="#E"/><use transform="matrix(0.07469135802469128,0,0,0.07469135802469128,77.60432098765423,0)" xlink:href="#O"/></g><path fill="#333" d="M212-179c-10-28-35-45-73-45-59 0-87 40-87 99 0 60 29 101 89 101 43 0 62-24 78-52l27 14C228-24 195 4 139 4 59 4 22-46 18-125c-6-104 99-153 187-111 19 9 31 26 39 46" id="P"/><path fill="#333" d="M179-190L93 31C79 59 56 82 12 73V49c39 6 53-20 64-50L1-190h34L92-34l54-156h33" id="Q"/><g id="g"><use transform="matrix(0.07469135802469128,0,0,0.07469135802469128,0,0)" xlink:href="#P"/><use transform="matrix(0.07469135802469128,0,0,0.07469135802469128,19.34506172839504,0)" xlink:href="#y"/><use transform="matrix(0.07469135802469128,0,0,0.07469135802469128,34.283333333333296,0)" xlink:href="#J"/><use transform="matrix(0.07469135802469128,0,0,0.07469135802469128,41.75246913580242,0)" xlink:href="#C"/><use transform="matrix(0.07469135802469128,0,0,0.07469135802469128,56.69074074074068,0)" xlink:href="#v"/><use transform="matrix(0.07469135802469128,0,0,0.07469135802469128,71.62901234567893,0)" xlink:href="#B"/><use transform="matrix(0.07469135802469128,0,0,0.07469135802469128,86.5672839506172,0)" xlink:href="#z"/><use transform="matrix(0.07469135802469128,0,0,0.07469135802469128,95.45555555555545,0)" xlink:href="#Q"/></g><g id="h"><use transform="matrix(0.07469135802469128,0,0,0.07469135802469128,0,0)" xlink:href="#K"/><use transform="matrix(0.07469135802469128,0,0,0.07469135802469128,17.925925925925906,0)" xlink:href="#y"/><use transform="matrix(0.07469135802469128,0,0,0.07469135802469128,32.86419753086416,0)" xlink:href="#L"/><use transform="matrix(0.07469135802469128,0,0,0.07469135802469128,46.30864197530859,0)" xlink:href="#M"/><use transform="matrix(0.07469135802469128,0,0,0.07469135802469128,59.75308641975302,0)" xlink:href="#C"/><use transform="matrix(0.07469135802469128,0,0,0.07469135802469128,74.69135802469127,0)" xlink:href="#u"/><use transform="matrix(0.07469135802469128,0,0,0.07469135802469128,89.62962962962952,0)" xlink:href="#D"/></g><path fill="#333" d="M240 0l2-218c-23 76-54 145-80 218h-23L58-218 59 0H30v-248h44l77 211c21-75 51-140 76-211h43V0h-30" id="R"/><path fill="#333" d="M137-103V0h-34v-103L8-248h37l75 118 75-118h37" id="S"/><path fill="#333" d="M185-189c-5-48-123-54-124 2 14 75 158 14 163 119 3 78-121 87-175 55-17-10-28-26-33-46l33-7c5 56 141 63 141-1 0-78-155-14-162-118-5-82 145-84 179-34 5 7 8 16 11 25" id="T"/><path fill="#333" d="M140-251c81 0 123 46 123 126C263-53 228-8 163 1c7 30 30 48 69 40v23c-55 16-95-15-103-61C56-3 17-48 17-125c0-80 42-126 123-126zm0 227c63 0 89-41 89-101s-29-99-89-99c-61 0-89 39-89 99S79-25 140-24" id="U"/><g id="i"><use transform="matrix(0.08086419753086412,0,0,0.08086419753086412,0,0)" xlink:href="#R"/><use transform="matrix(0.08086419753086412,0,0,0.08086419753086412,24.17839506172837,0)" xlink:href="#S"/><use transform="matrix(0.08086419753086412,0,0,0.08086419753086412,43.58580246913576,0)" xlink:href="#T"/><use transform="matrix(0.08086419753086412,0,0,0.08086419753086412,62.99320987654315,0)" xlink:href="#U"/><use transform="matrix(0.08086419753086412,0,0,0.08086419753086412,85.6351851851851,0)" xlink:href="#G"/></g><path fill="#333" d="M30-248c118-7 216 8 213 122C240-48 200 0 122 0H30v-248zM63-27c89 8 146-16 146-99s-60-101-146-95v194" id="V"/><g id="j"><use transform="matrix(0.08086419753086412,0,0,0.08086419753086412,0,0)" xlink:href="#V"/><use transform="matrix(0.08086419753086412,0,0,0.08086419753086412,20.943827160493807,0)" xlink:href="#K"/></g><path fill="#333" d="M33 0v-248h34V0H33" id="W"/><path fill="#333" d="M127-220V0H93v-220H8v-28h204v28h-85" id="X"/><path fill="#333" d="M30 0v-248h187v28H63v79h144v27H63v87h162V0H30" id="Y"/><g id="k"><use transform="matrix(0.056172839506172786,0,0,0.056172839506172786,0,0)" xlink:href="#T"/><use transform="matrix(0.056172839506172786,0,0,0.056172839506172786,13.481481481481469,0)" xlink:href="#U"/><use transform="matrix(0.056172839506172786,0,0,0.056172839506172786,29.209876543209848,0)" xlink:href="#G"/><use transform="matrix(0.056172839506172786,0,0,0.056172839506172786,40.44444444444441,0)" xlink:href="#W"/><use transform="matrix(0.056172839506172786,0,0,0.056172839506172786,46.061728395061685,0)" xlink:href="#X"/><use transform="matrix(0.056172839506172786,0,0,0.056172839506172786,58.36358024691353,0)" xlink:href="#Y"/></g><g id="m"><use transform="matrix(0.056172839506172786,0,0,0.056172839506172786,0,0)" xlink:href="#V"/><use transform="matrix(0.056172839506172786,0,0,0.056172839506172786,14.548765432098751,0)" xlink:href="#K"/></g><path fill="#333" d="M145-31C134-9 116 4 85 4 32 4 16-35 15-94c0-59 17-99 70-100 32-1 48 14 60 33 0-11-1-24 2-32h30l-1 268h-32zM93-21c41 0 51-33 51-76s-8-73-50-73c-40 0-46 35-46 75s5 74 45 74" id="Z"/><path fill="#333" d="M9 0v-24l116-142H16v-24h144v24L44-24h123V0H9" id="aa"/><g id="n"><use transform="matrix(0.07469135802469132,0,0,0.07469135802469132,0,0)" xlink:href="#T"/><use transform="matrix(0.07469135802469132,0,0,0.07469135802469132,17.925925925925917,0)" xlink:href="#C"/><use transform="matrix(0.07469135802469132,0,0,0.07469135802469132,32.86419753086418,0)" xlink:href="#Z"/><use transform="matrix(0.07469135802469132,0,0,0.07469135802469132,47.80246913580244,0)" xlink:href="#w"/><use transform="matrix(0.07469135802469132,0,0,0.07469135802469132,62.74074074074071,0)" xlink:href="#C"/><use transform="matrix(0.07469135802469132,0,0,0.07469135802469132,77.67901234567897,0)" xlink:href="#x"/><use transform="matrix(0.07469135802469132,0,0,0.07469135802469132,83.57962962962958,0)" xlink:href="#H"/><use transform="matrix(0.07469135802469132,0,0,0.07469135802469132,89.48024691358019,0)" xlink:href="#aa"/><use transform="matrix(0.07469135802469132,0,0,0.07469135802469132,102.92469135802463,0)" xlink:href="#C"/></g><path fill="#333" d="M115-194c55 1 70 41 70 98S169 2 115 4C84 4 66-9 55-30l1 105H24l-1-265h31l2 30c10-21 28-34 59-34zm-8 174c40 0 45-34 45-75s-6-73-45-74c-42 0-51 32-51 76 0 43 10 73 51 73" id="ab"/><path fill="#333" d="M115-194c53 0 69 39 70 98 0 66-23 100-70 100C84 3 66-7 56-30L54 0H23l1-261h32v101c10-23 28-34 59-34zm-8 174c40 0 45-34 45-75 0-40-5-75-45-74-42 0-51 32-51 76 0 43 10 73 51 73" id="ac"/><g id="o"><use transform="matrix(0.062345679012345626,0,0,0.062345679012345626,0,0)" xlink:href="#T"/><use transform="matrix(0.062345679012345626,0,0,0.062345679012345626,14.96296296296295,0)" xlink:href="#ab"/><use transform="matrix(0.062345679012345626,0,0,0.062345679012345626,27.432098765432073,0)" xlink:href="#z"/><use transform="matrix(0.062345679012345626,0,0,0.062345679012345626,34.8512345679012,0)" xlink:href="#H"/><use transform="matrix(0.062345679012345626,0,0,0.062345679012345626,39.77654320987651,0)" xlink:href="#u"/><use transform="matrix(0.062345679012345626,0,0,0.062345679012345626,52.24567901234563,0)" xlink:href="#v"/><use transform="matrix(0.062345679012345626,0,0,0.062345679012345626,64.71481481481476,0)" xlink:href="#ac"/><use transform="matrix(0.062345679012345626,0,0,0.062345679012345626,77.18395061728388,0)" xlink:href="#B"/><use transform="matrix(0.062345679012345626,0,0,0.062345679012345626,89.65308641975301,0)" xlink:href="#B"/><use transform="matrix(0.062345679012345626,0,0,0.062345679012345626,102.12222222222213,0)" xlink:href="#J"/></g><g id="p"><use transform="matrix(0.05,0,0,0.05,0,0)" xlink:href="#P"/><use transform="matrix(0.05,0,0,0.05,12.950000000000001,0)" xlink:href="#x"/><use transform="matrix(0.05,0,0,0.05,16.900000000000002,0)" xlink:href="#H"/><use transform="matrix(0.05,0,0,0.05,20.85,0)" xlink:href="#C"/><use transform="matrix(0.05,0,0,0.05,30.85,0)" xlink:href="#u"/><use transform="matrix(0.05,0,0,0.05,40.85,0)" xlink:href="#J"/></g><path fill="#202124" d="M240 0l2-218c-23 76-54 145-80 218h-23L58-218 59 0H30v-248h44l77 211c21-75 51-140 76-211h43V0h-30" id="ad"/><path fill="#202124" d="M24-231v-30h32v30H24zM24 0v-190h32V0H24" id="ae"/><path fill="#202124" d="M100-194c62-1 85 37 85 99 1 63-27 99-86 99S16-35 15-95c0-66 28-99 85-99zM99-20c44 1 53-31 53-75 0-43-8-75-51-75s-53 32-53 75 10 74 51 75" id="af"/><path fill="#202124" d="M177-190C167-65 218 103 67 71c-23-6-38-20-44-43l32-5c15 47 100 32 89-28v-30C133-14 115 1 83 1 29 1 15-40 15-95c0-56 16-97 71-98 29-1 48 16 59 35 1-10 0-23 2-32h30zM94-22c36 0 50-32 50-73 0-42-14-75-50-75-39 0-46 34-46 75s6 73 46 73" id="ag"/><path fill="#202124" d="M141-36C126-15 110 5 73 4 37 3 15-17 15-53c-1-64 63-63 125-63 3-35-9-54-41-54-24 1-41 7-42 31l-33-3c5-37 33-52 76-52 45 0 72 20 72 64v82c-1 20 7 32 28 27v20c-31 9-61-2-59-35zM48-53c0 20 12 33 32 33 41-3 63-29 60-74-43 2-92-5-92 41" id="ah"/><g id="q"><use transform="matrix(0.1419753086419751,0,0,0.1419753086419751,0,0)" xlink:href="#ad"/><use transform="matrix(0.1419753086419751,0,0,0.1419753086419751,42.45061728395056,0)" xlink:href="#ae"/><use transform="matrix(0.1419753086419751,0,0,0.1419753086419751,53.66666666666658,0)" xlink:href="#af"/><use transform="matrix(0.1419753086419751,0,0,0.1419753086419751,82.0617283950616,0)" xlink:href="#ag"/><use transform="matrix(0.1419753086419751,0,0,0.1419753086419751,110.45679012345663,0)" xlink:href="#ah"/></g><path fill="#202124" d="M96-169c-40 0-48 33-48 73s9 75 48 75c24 0 41-14 43-38l32 2c-6 37-31 61-74 61-59 0-76-41-82-99-10-93 101-131 147-64 4 7 5 14 7 22l-32 3c-4-21-16-35-41-35" id="ai"/><path fill="#202124" d="M114-163C36-179 61-72 57 0H25l-1-190h30c1 12-1 29 2 39 6-27 23-49 58-41v29" id="aj"/><path fill="#202124" d="M135-143c-3-34-86-38-87 0 15 53 115 12 119 90S17 21 10-45l28-5c4 36 97 45 98 0-10-56-113-15-118-90-4-57 82-63 122-42 12 7 21 19 24 35" id="ak"/><path fill="#202124" d="M100-194c63 0 86 42 84 106H49c0 40 14 67 53 68 26 1 43-12 49-29l28 8c-11 28-37 45-77 45C44 4 14-33 15-96c1-61 26-98 85-98zm52 81c6-60-76-77-97-28-3 7-6 17-6 28h103" id="al"/><path fill="#202124" d="M108 0H70L1-190h34L89-25l56-165h34" id="am"/><g id="r"><use transform="matrix(0.1419753086419751,0,0,0.1419753086419751,0,0)" xlink:href="#ad"/><use transform="matrix(0.1419753086419751,0,0,0.1419753086419751,42.45061728395056,0)" xlink:href="#ae"/><use transform="matrix(0.1419753086419751,0,0,0.1419753086419751,53.66666666666658,0)" xlink:href="#ai"/><use transform="matrix(0.1419753086419751,0,0,0.1419753086419751,79.22222222222209,0)" xlink:href="#aj"/><use transform="matrix(0.1419753086419751,0,0,0.1419753086419751,96.11728395061714,0)" xlink:href="#af"/><use transform="matrix(0.1419753086419751,0,0,0.1419753086419751,124.51234567901216,0)" xlink:href="#ak"/><use transform="matrix(0.1419753086419751,0,0,0.1419753086419751,150.06790123456764,0)" xlink:href="#al"/><use transform="matrix(0.1419753086419751,0,0,0.1419753086419751,178.4629629629627,0)" xlink:href="#aj"/><use transform="matrix(0.1419753086419751,0,0,0.1419753086419751,195.35802469135774,0)" xlink:href="#am"/><use transform="matrix(0.1419753086419751,0,0,0.1419753086419751,220.91358024691326,0)" xlink:href="#ae"/><use transform="matrix(0.1419753086419751,0,0,0.1419753086419751,232.12962962962928,0)" xlink:href="#ai"/><use transform="matrix(0.1419753086419751,0,0,0.1419753086419751,257.6851851851848,0)" xlink:href="#al"/><use transform="matrix(0.1419753086419751,0,0,0.1419753086419751,286.08024691357986,0)" xlink:href="#ak"/></g><g id="s"><use transform="matrix(0.08086419753086417,0,0,0.08086419753086417,0,0)" xlink:href="#w"/><use transform="matrix(0.08086419753086417,0,0,0.08086419753086417,16.172839506172835,0)" xlink:href="#O"/><use transform="matrix(0.08086419753086417,0,0,0.08086419753086417,30.728395061728385,0)" xlink:href="#C"/></g></defs></g></svg>